<?xml version="1.0" encoding="UTF-8" standalone="no"?>
<!-- Created with Inkscape (http://www.inkscape.org/) -->

<svg
   xmlns:dc="http://purl.org/dc/elements/1.1/"
   xmlns:cc="http://creativecommons.org/ns#"
   xmlns:rdf="http://www.w3.org/1999/02/22-rdf-syntax-ns#"
   xmlns:svg="http://www.w3.org/2000/svg"
   xmlns="http://www.w3.org/2000/svg"
   xmlns:sodipodi="http://sodipodi.sourceforge.net/DTD/sodipodi-0.dtd"
   xmlns:inkscape="http://www.inkscape.org/namespaces/inkscape"
   width="4.330184mm"
   height="4.3301182mm"
   viewBox="0 0 4.330184 4.3301182"
   version="1.1"
   id="svg263"
   inkscape:version="0.92.4 (5da689c313, 2019-01-14)"
   sodipodi:docname="configuration.svg">
  <defs
     id="defs257" />
  <sodipodi:namedview
     id="base"
     pagecolor="#ffffff"
     bordercolor="#666666"
     borderopacity="1.0"
     inkscape:pageopacity="0.0"
     inkscape:pageshadow="2"
     inkscape:zoom="0.5"
     inkscape:cx="168.18303"
     inkscape:cy="-371.8171"
     inkscape:document-units="mm"
     inkscape:current-layer="layer1"
     showgrid="false"
     fit-margin-top="0"
     fit-margin-left="0"
     fit-margin-right="0"
     fit-margin-bottom="0"
     inkscape:window-width="1366"
     inkscape:window-height="705"
     inkscape:window-x="-8"
     inkscape:window-y="-8"
     inkscape:window-maximized="1" />
  <metadata
     id="metadata260">
    <rdf:RDF>
      <cc:Work
         rdf:about="">
        <dc:format>image/svg+xml</dc:format>
        <dc:type
           rdf:resource="http://purl.org/dc/dcmitype/StillImage" />
        <dc:title></dc:title>
      </cc:Work>
    </rdf:RDF>
  </metadata>
  <g
     inkscape:label="Layer 1"
     inkscape:groupmode="layer"
     id="layer1"
     transform="translate(-61.334906,-46.126607)">
    <path
       inkscape:connector-curvature="0"
       d="m 65.607012,47.721112 c -0.02667,-0.09808 -0.05963,-0.192367 -0.09793,-0.283125 l -0.394673,-0.02328 c -0.09455,-0.174419 -0.215752,-0.330282 -0.356373,-0.462288 l 0.07757,-0.3874 c -0.158525,-0.122066 -0.333097,-0.22229 -0.518795,-0.297569 l -0.294798,0.262559 c -0.185439,-0.0548 -0.380839,-0.0811 -0.57888,-0.07444 l -0.21917,-0.328962 c -0.09819,0.01265 -0.196374,0.03141 -0.294299,0.0582 -0.09821,0.0263 -0.192,0.05952 -0.282934,0.09793 l -0.02328,0.394565 c -0.174831,0.09479 -0.330435,0.215641 -0.46255,0.356589 l -0.38718,-0.07794 c -0.122436,0.158528 -0.222549,0.333206 -0.297723,0.518581 l 0.2623,0.295122 c -0.05501,0.185221 -0.08073,0.380838 -0.07444,0.579138 l -0.328951,0.21902 c 0.01236,0.09782 0.03175,0.195939 0.05845,0.29419 0.02641,0.09808 0.05915,0.192259 0.09793,0.283019 l 0.394412,0.02307 c 0.09457,0.174811 0.215786,0.330523 0.356372,0.462788 l -0.07757,0.3869 c 0.158311,0.12242 0.333097,0.222808 0.518795,0.297699 l 0.294799,-0.262279 c 0.185224,0.05551 0.380579,0.08085 0.579398,0.07439 l 0.21863,0.329136 c 0.09795,-0.01273 0.195919,-0.03189 0.294063,-0.05833 0.09819,-0.02663 0.19226,-0.0595 0.283171,-0.09769 l 0.02328,-0.394782 c 0.17481,-0.09457 0.330176,-0.215527 0.462288,-0.356611 l 0.386879,0.07796 c 0.122695,-0.158525 0.223025,-0.333097 0.298199,-0.518903 l -0.262562,-0.29482 c 0.05502,-0.185201 0.08076,-0.380709 0.07444,-0.579268 l 0.32921,-0.218911 c -0.01246,-0.09788 -0.03143,-0.195961 -0.05808,-0.294257 z m -0.667173,0.180721 c 0.215318,0.795147 -0.254765,1.614329 -1.05015,1.829562 -0.79515,0.215273 -1.61407,-0.254767 -1.829345,-1.050155 -0.21549,-0.795279 0.25455,-1.614461 1.050195,-1.829712 0.79489,-0.215167 1.614027,0.254918 1.8293,1.050305 z"
       id="path2643"
       style="stroke-width:0.03602986" />
  </g>
</svg>
