<?xml version="1.0" encoding="UTF-8" standalone="no"?>
<!-- Created with Inkscape (http://www.inkscape.org/) -->

<svg
   xmlns:dc="http://purl.org/dc/elements/1.1/"
   xmlns:cc="http://creativecommons.org/ns#"
   xmlns:rdf="http://www.w3.org/1999/02/22-rdf-syntax-ns#"
   xmlns:svg="http://www.w3.org/2000/svg"
   xmlns="http://www.w3.org/2000/svg"
   xmlns:sodipodi="http://sodipodi.sourceforge.net/DTD/sodipodi-0.dtd"
   xmlns:inkscape="http://www.inkscape.org/namespaces/inkscape"
   width="4.0821438mm"
   height="4.7625008mm"
   viewBox="0 0 4.0821438 4.7625008"
   version="1.1"
   id="svg3917"
   inkscape:version="0.92.4 (5da689c313, 2019-01-14)"
   sodipodi:docname="doumentation-icon.svg">
  <defs
     id="defs3911" />
  <sodipodi:namedview
     id="base"
     pagecolor="#ffffff"
     bordercolor="#666666"
     borderopacity="1.0"
     inkscape:pageopacity="0.0"
     inkscape:pageshadow="2"
     inkscape:zoom="0.35"
     inkscape:cx="50.57143"
     inkscape:cy="9.0000024"
     inkscape:document-units="mm"
     inkscape:current-layer="layer1"
     showgrid="false"
     fit-margin-top="0"
     fit-margin-left="0"
     fit-margin-right="0"
     fit-margin-bottom="0"
     inkscape:window-width="1366"
     inkscape:window-height="705"
     inkscape:window-x="-8"
     inkscape:window-y="-8"
     inkscape:window-maximized="1" />
  <metadata
     id="metadata3914">
    <rdf:RDF>
      <cc:Work
         rdf:about="">
        <dc:format>image/svg+xml</dc:format>
        <dc:type
           rdf:resource="http://purl.org/dc/dcmitype/StillImage" />
        <dc:title></dc:title>
      </cc:Work>
    </rdf:RDF>
  </metadata>
  <g
     inkscape:label="Layer 1"
     inkscape:groupmode="layer"
     id="layer1"
     transform="translate(6.9547622,-146.45208)">
    <g
       id="reference_link"
       transform="matrix(0.34017863,0,0,0.34017863,-8.995834,144.75119)"
       style="fill:#172e49;fill-opacity:1"
       inkscape:label="#reference">
      <path
         id="path6-7"
         d="M 7,6.5 C 7,5.953 8,6 8,6 h 9 C 17,5.724 16.553,5 16,5 H 8 C 6.667,5 6,5.447 6,6 v 12 c 0,0.553 0.447,1 1,1 h 10 c 0.553,0 1,-0.447 1,-1 V 8 c 0,0 0,-1 -1,-1 -1,0 -2.158,0 -4,0 v 7 L 10.999,12 9,14 V 7 H 8 C 8,7 7,7 7,6.5 Z"
         inkscape:connector-curvature="0"
         style="fill:#172e49;fill-opacity:1" />
    </g>
  </g>
</svg>
