<?xml version="1.0" encoding="UTF-8" standalone="no"?>
<!-- Created with Inkscape (http://www.inkscape.org/) -->

<svg
   xmlns:dc="http://purl.org/dc/elements/1.1/"
   xmlns:cc="http://creativecommons.org/ns#"
   xmlns:rdf="http://www.w3.org/1999/02/22-rdf-syntax-ns#"
   xmlns:svg="http://www.w3.org/2000/svg"
   xmlns="http://www.w3.org/2000/svg"
   xmlns:sodipodi="http://sodipodi.sourceforge.net/DTD/sodipodi-0.dtd"
   xmlns:inkscape="http://www.inkscape.org/namespaces/inkscape"
   width="8.9390039mm"
   height="6.5881405mm"
   viewBox="0 0 31.673636 23.343804"
   id="svg3655"
   version="1.1"
   inkscape:version="0.91 r13725"
   sodipodi:docname="goals-blue-icon.svg">
  <defs
     id="defs3657" />
  <sodipodi:namedview
     id="base"
     pagecolor="#ffffff"
     bordercolor="#666666"
     borderopacity="1.0"
     inkscape:pageopacity="0.0"
     inkscape:pageshadow="2"
     inkscape:zoom="2.8"
     inkscape:cx="50.380021"
     inkscape:cy="-16.362995"
     inkscape:document-units="px"
     inkscape:current-layer="layer1"
     showgrid="false"
     fit-margin-top="0"
     fit-margin-left="0"
     fit-margin-right="0"
     fit-margin-bottom="0"
     inkscape:window-width="1920"
     inkscape:window-height="1014"
     inkscape:window-x="0"
     inkscape:window-y="27"
     inkscape:window-maximized="1" />
  <metadata
     id="metadata3660">
    <rdf:RDF>
      <cc:Work
         rdf:about="">
        <dc:format>image/svg+xml</dc:format>
        <dc:type
           rdf:resource="http://purl.org/dc/dcmitype/StillImage" />
        <dc:title></dc:title>
      </cc:Work>
    </rdf:RDF>
  </metadata>
  <g
     inkscape:label="Layer 1"
     inkscape:groupmode="layer"
     id="layer1"
     transform="translate(593.39314,-213.27054)">
    <g
       transform="matrix(0.52827018,0,0,0.34738871,-900.85767,167.15012)"
       id="g8615"
       style="fill:#172e49;fill-opacity:1">
      <path
         style="fill:#172e49;fill-opacity:1;stroke:none"
         d="m 635.91808,157.29886 0.93912,-3.50485 0.83913,-0.16502 c 0.46152,-0.0908 1.61385,-0.39077 2.56073,-0.6667 l 1.72158,-0.50168 -0.93527,3.49017 -0.93527,3.49016 -1.7863,0.52229 c -0.98246,0.28727 -2.13652,0.59389 -2.56457,0.68138 l -0.77827,0.15909 0.93912,-3.50484 z"
         id="path3317-4"
         inkscape:connector-curvature="0" />
      <path
         style="fill:#172e49;fill-opacity:1;stroke:none"
         d="m 627.50423,165.6902 0.93881,-3.50367 1.35928,-0.0166 c 0.7476,-0.009 1.97048,-0.10394 2.7175,-0.21072 0.74702,-0.10677 1.38817,-0.1861 1.42479,-0.17629 0.0366,0.01 -0.35218,1.58066 -0.864,3.49078 l -0.93057,3.47296 -1.21204,0.20908 c -1.20874,0.20851 -3.80894,0.38916 -4.17803,0.29026 -0.1674,-0.0449 -0.0635,-0.54109 0.74426,-3.55581 z"
         id="path3319-3"
         inkscape:connector-curvature="0" />
      <path
         style="fill:#172e49;fill-opacity:1;stroke:none"
         d="m 631.74535,172.87221 0.94054,-3.50964 1.23377,-0.29072 c 1.1248,-0.26504 2.67777,-0.69469 3.55638,-0.98391 l 0.34577,-0.11382 -0.94472,3.51125 -0.94472,3.51126 -1.70057,0.47847 c -0.93531,0.26316 -2.08896,0.57485 -2.56366,0.69264 l -0.86308,0.21417 0.94054,-3.50964 z"
         id="path3321-9"
         inkscape:connector-curvature="0" />
      <path
         style="fill:#172e49;fill-opacity:1;stroke:none"
         d="m 623.34126,181.22664 0.94447,-3.52483 0.59392,0.006 c 1.19778,0.0121 2.8929,-0.11073 3.92965,-0.28468 l 1.06371,-0.17849 -0.94443,3.52467 -0.94443,3.52467 -1.10779,0.18536 c -1.03677,0.17349 -4.05106,0.38697 -4.34642,0.30782 -0.0871,-0.0233 0.19359,-1.25512 0.81132,-3.56051 z"
         id="path3323-8"
         inkscape:connector-curvature="0" />
      <path
         style="fill:#172e49;fill-opacity:1;stroke:none"
         d="m 620.06557,175.93302 c -0.40605,-0.2103 -0.96132,-0.55009 -1.23393,-0.75507 l -0.49565,-0.3727 0.94013,-3.50864 0.94014,-3.50864 0.66102,0.44562 c 0.82111,0.55356 2.84789,1.33198 3.96141,1.52145 l 0.83757,0.14253 -0.94593,3.53026 -0.94593,3.53026 -0.62884,-0.0794 c -0.96363,-0.12165 -2.27223,-0.52215 -3.08999,-0.94568 z"
         id="path3325-8"
         inkscape:connector-curvature="0" />
      <path
         style="fill:#172e49;fill-opacity:1;stroke:none"
         d="m 624.3502,160.46552 c -0.27151,-0.13716 -0.78878,-0.44226 -1.14949,-0.67799 l -0.65583,-0.4286 0.9181,-3.56556 0.9181,-3.56555 0.62536,0.41993 c 1.13669,0.76331 2.24211,1.21845 3.57861,1.47344 l 1.25432,0.23932 -0.94356,3.52142 -0.94356,3.52142 -0.43045,-0.0278 c -0.59069,-0.0381 -2.56952,-0.60591 -3.17163,-0.91008 z"
         id="path3327-0"
         inkscape:connector-curvature="0" />
      <path
         style="fill:#172e49;fill-opacity:1;stroke:none"
         d="m 618.91318,165.49489 c -0.47801,-0.57004 -1.45707,-1.79301 -2.17568,-2.7177 l -1.30657,-1.68125 0.91996,-3.44783 0.91996,-3.44783 0.29414,0.32938 c 0.16179,0.18116 0.78598,0.97901 1.3871,1.77301 1.15888,1.53072 2.30808,2.85678 2.68444,3.09755 0.21591,0.13813 0.18003,0.32185 -0.71616,3.66648 -0.51891,1.93658 -0.98733,3.50834 -1.04099,3.49279 -0.0537,-0.0155 -0.48861,-0.49468 -0.96663,-1.06472 z"
         id="path3329-8"
         inkscape:connector-curvature="0" />
      <path
         style="fill:#172e49;fill-opacity:1;stroke:none"
         d="m 615.026,181.35624 c -0.38087,-0.42079 -1.18084,-1.41344 -1.77771,-2.2059 -0.59687,-0.79246 -1.29127,-1.67195 -1.54312,-1.95443 l -0.4579,-0.51359 0.92366,-3.44713 c 0.50801,-1.89592 0.9543,-3.43892 0.99176,-3.42888 0.0375,0.01 0.83055,0.99496 1.76242,2.18874 0.93187,1.19376 1.9336,2.39213 2.22607,2.66304 l 0.53177,0.49255 -0.93713,3.49741 c -0.51542,1.92358 -0.95742,3.49198 -0.98222,3.48533 -0.0248,-0.007 -0.35672,-0.35636 -0.73759,-0.77714 z"
         id="path3331-7"
         inkscape:connector-curvature="0" />
      <path
         style="fill:#172e49;fill-opacity:1;stroke:none"
         d="m 611.696,167.16346 c -0.56965,-0.6064 -1.63103,-1.64595 -2.35861,-2.3101 l -1.32287,-1.20756 0.9262,-3.45662 c 0.50941,-1.90115 0.9571,-3.44835 0.99483,-3.43824 0.17763,0.0476 1.85383,1.61746 3.2168,3.01273 l 1.51119,1.54701 -0.93603,3.49747 c -0.5149,1.92359 -0.94957,3.48853 -0.96591,3.47766 -0.0163,-0.0109 -0.49581,-0.51592 -1.06547,-1.12232 z"
         id="path3333-7"
         inkscape:connector-curvature="0" />
      <path
         style="fill:#172e49;fill-opacity:1;stroke:none"
         d="m 616.20463,151.97513 c -0.75984,-0.82366 -3.48131,-3.39039 -3.8341,-3.61608 -0.20889,-0.13364 -0.16657,-0.34847 0.72156,-3.66303 0.51891,-1.93658 0.9825,-3.5106 1.03023,-3.49781 0.27869,0.0747 4.25494,4.00108 4.55444,4.49735 0.0944,0.15647 -0.0978,0.99513 -0.82889,3.61639 l -0.95182,3.41268 -0.69141,-0.74949 z"
         id="path3335-8"
         inkscape:connector-curvature="0" />
      <path
         style="fill:#172e49;fill-opacity:1;stroke:none"
         d="m 608.64176,154.76807 c -0.50819,-0.40436 -1.62086,-1.19362 -2.47261,-1.75392 l -1.54863,-1.01872 0.91327,-3.5475 0.91326,-3.54751 0.63429,0.38664 c 0.86702,0.52851 2.70664,1.84216 3.64802,2.60501 l 0.7771,0.62972 -0.94114,3.51237 c -0.51763,1.9318 -0.95429,3.50264 -0.97035,3.49074 -0.0161,-0.0119 -0.44503,-0.35247 -0.95322,-0.75683 z"
         id="path3339-3"
         inkscape:connector-curvature="0" />
      <path
         style="fill:#172e49;fill-opacity:1;stroke:none"
         d="m 604.53978,170.33836 c -0.47665,-0.37827 -1.60304,-1.17517 -2.5031,-1.77088 l -1.63646,-1.08313 0.94292,-3.51903 c 0.51861,-1.93546 0.96767,-3.5124 0.99786,-3.50431 0.0302,0.008 0.66041,0.42123 1.40044,0.91806 1.89763,1.27403 3.51948,2.51314 3.53954,2.70424 0.009,0.0894 -0.40858,1.68804 -0.92873,3.55264 l -0.94585,3.39017 -0.86663,-0.68776 z"
         id="path3341-8"
         inkscape:connector-curvature="0" />
      <path
         style="fill:#172e49;fill-opacity:1;stroke:none"
         d="m 599.95965,158.40822 c -0.88012,-0.4544 -2.09663,-1.03263 -2.70336,-1.28496 l -1.10314,-0.45878 0.95656,-3.56992 0.95655,-3.56992 0.47117,0.20263 c 0.74929,0.32225 4.27171,2.0339 4.77322,2.31945 l 0.4559,0.25959 -0.94448,3.52484 c -0.73465,2.74178 -0.97975,3.51133 -1.10333,3.46404 -0.0874,-0.0335 -0.87897,-0.43258 -1.75909,-0.88697 z"
         id="path3343-3"
         inkscape:connector-curvature="0" />
      <path
         style="fill:#172e49;fill-opacity:1;stroke:none"
         d="m 604.30648,142.97007 c -0.71008,-0.36997 -1.89699,-0.94099 -2.63759,-1.26896 l -1.34654,-0.59629 0.94579,-3.52973 0.94579,-3.52974 0.72892,0.28654 c 0.81413,0.32002 2.89863,1.31852 4.16015,1.99274 l 0.82735,0.44218 -0.94206,3.51579 c -0.87552,3.26751 -0.95789,3.5103 -1.16641,3.43796 -0.12339,-0.0428 -0.80532,-0.38053 -1.5154,-0.75049 z"
         id="path3345-7"
         inkscape:connector-curvature="0" />
      <rect
         style="fill:#172e49;fill-opacity:1;stroke:none"
         id="rect3347-1"
         width="1.6078513"
         height="69.137604"
         x="613.83551"
         y="-27.030203"
         transform="matrix(0.96592582,0.25881906,-0.25881906,0.96592582,0,0)" />
    </g>
  </g>
</svg>
