<?xml version="1.0" encoding="UTF-8" standalone="no"?>
<!-- Created with Inkscape (http://www.inkscape.org/) -->

<svg
   xmlns:dc="http://purl.org/dc/elements/1.1/"
   xmlns:cc="http://creativecommons.org/ns#"
   xmlns:rdf="http://www.w3.org/1999/02/22-rdf-syntax-ns#"
   xmlns:svg="http://www.w3.org/2000/svg"
   xmlns="http://www.w3.org/2000/svg"
   xmlns:sodipodi="http://sodipodi.sourceforge.net/DTD/sodipodi-0.dtd"
   xmlns:inkscape="http://www.inkscape.org/namespaces/inkscape"
   width="11.845976mm"
   height="8.7700405mm"
   viewBox="0 0 41.97393 31.074947"
   id="svg3555"
   version="1.1"
   inkscape:version="0.91 r13725"
   sodipodi:docname="performance_logo_white.svg">
  <defs
     id="defs3557" />
  <sodipodi:namedview
     id="base"
     pagecolor="#ffffff"
     bordercolor="#666666"
     borderopacity="1.0"
     inkscape:pageopacity="0.0"
     inkscape:pageshadow="2"
     inkscape:zoom="0.35"
     inkscape:cx="-666.87017"
     inkscape:cy="-595.8911"
     inkscape:document-units="px"
     inkscape:current-layer="layer1"
     showgrid="false"
     fit-margin-top="0"
     fit-margin-left="0"
     fit-margin-right="0"
     fit-margin-bottom="0"
     inkscape:window-width="1920"
     inkscape:window-height="1014"
     inkscape:window-x="0"
     inkscape:window-y="27"
     inkscape:window-maximized="1" />
  <metadata
     id="metadata3560">
    <rdf:RDF>
      <cc:Work
         rdf:about="">
        <dc:format>image/svg+xml</dc:format>
        <dc:type
           rdf:resource="http://purl.org/dc/dcmitype/StillImage" />
        <dc:title></dc:title>
      </cc:Work>
    </rdf:RDF>
  </metadata>
  <g
     inkscape:label="Layer 1"
     inkscape:groupmode="layer"
     id="layer1"
     transform="translate(-667.58446,94.603844)">
    <g
       id="g4427"
       transform="translate(460.35087,-310.31243)">
      <circle
         r="2.8618569"
         id="circle3"
         cy="243.92168"
         cx="228.22054"
         style="fill:#ffffff" />
      <g
         style="fill:#ffffff"
         id="g5"
         transform="matrix(0.95395238,0,0,0.95395238,207.23359,210.25961)">
        <path
           id="path7"
           d="m 34.537,16.316 3.387,-3.774 C 33.917,8.337 28.267,5.712 22,5.712 c -12.15,0 -22,9.853 -22,22 0,0.146 0.008,0.289 0.011,0.435 l 0.546,0 C 1.151,17.911 9.615,9.787 20,9.787 c 5.784,0 10.969,2.528 14.537,6.529 z"
           inkscape:connector-curvature="0"
           style="fill:#ffffff" />
      </g>
      <line
         id="line9"
         y2="224.2865"
         x2="245.86295"
         y1="244.47784"
         x1="227.74834"
         stroke-miterlimit="10"
         style="fill:#ffffff;stroke:#ffffff;stroke-width:2.86185694;stroke-miterlimit:10;stroke-opacity:1" />
      <path
         id="path11"
         d="m 243.64977,231.50603 c 0.5676,1.46718 0.96826,3.01735 1.1457,4.63716 l 4.35765,1.64939 c 0.02,-0.36537 0.0544,-0.72596 0.0544,-1.09704 0,-3.25203 -0.75267,-6.32471 -2.0739,-9.07305 l -3.48383,3.88354 z"
         style="fill:#ffffff"
         inkscape:connector-curvature="0" />
    </g>
  </g>
</svg>
