<?xml version="1.0" encoding="UTF-8" standalone="no"?>
<!-- Created with Inkscape (http://www.inkscape.org/) -->

<svg
   xmlns:dc="http://purl.org/dc/elements/1.1/"
   xmlns:cc="http://creativecommons.org/ns#"
   xmlns:rdf="http://www.w3.org/1999/02/22-rdf-syntax-ns#"
   xmlns:svg="http://www.w3.org/2000/svg"
   xmlns="http://www.w3.org/2000/svg"
   xmlns:sodipodi="http://sodipodi.sourceforge.net/DTD/sodipodi-0.dtd"
   xmlns:inkscape="http://www.inkscape.org/namespaces/inkscape"
   width="136.19705mm"
   height="149.97807mm"
   viewBox="0 0 482.58798 531.41837"
   id="svg2"
   version="1.1"
   inkscape:version="0.91 r13725"
   sodipodi:docname="stratml_logo_white.svg">
  <defs
     id="defs4" />
  <sodipodi:namedview
     id="base"
     pagecolor="#ffffff"
     bordercolor="#666666"
     borderopacity="1.0"
     inkscape:pageopacity="0.0"
     inkscape:pageshadow="2"
     inkscape:zoom="1.4"
     inkscape:cx="278.46353"
     inkscape:cy="504.711"
     inkscape:document-units="px"
     inkscape:current-layer="layer1"
     showgrid="false"
     fit-margin-top="0"
     fit-margin-left="0"
     fit-margin-right="0"
     fit-margin-bottom="0"
     inkscape:window-width="1680"
     inkscape:window-height="988"
     inkscape:window-x="-8"
     inkscape:window-y="-8"
     inkscape:window-maximized="1" />
  <metadata
     id="metadata7">
    <rdf:RDF>
      <cc:Work
         rdf:about="">
        <dc:format>image/svg+xml</dc:format>
        <dc:type
           rdf:resource="http://purl.org/dc/dcmitype/StillImage" />
        <dc:title></dc:title>
      </cc:Work>
    </rdf:RDF>
  </metadata>
  <g
     inkscape:label="Layer 1"
     inkscape:groupmode="layer"
     id="layer1"
     transform="translate(-128.84815,-93.520511)">
    <path
       style="fill:#ffffff;fill-opacity:1"
       d="m 220.09501,623.14852 c -9.2877,-3.2096 -14.7545,-9.4019 -15.4525,-17.50335 l -0.3213,-3.7299 6.9895,0 6.9895,0 0.6357,3.1081 c 1.309,6.4003 8.7513,10.43655 16.7512,9.08505 5.8265,-0.9844 8.8973,-4.05895 8.8973,-8.90835 0,-3.2268 -0.5282,-4.4174 -2.8998,-6.5365 -1.5949,-1.425 -4.9603,-3.3207 -7.4787,-4.2126 -21.4925,-7.6118 -26.7939,-11.6193 -28.1142,-21.2519 -1.5916,-11.6114 6.0132,-20.0161 20.4045,-22.5511 15.6982,-2.7652 30.7046,5.7012 31.8795,17.986 l 0.3138,3.2813 -7.2656,0.2738 c -7.053,0.2658 -7.2656,0.2101 -7.2656,-1.9008 0,-10.197 -19.7987,-12.6272 -23.2075,-2.8486 -2.1799,6.2532 2.4172,10.4332 16.645,15.135 14.6323,4.8355 20.7344,10.8742 21.3899,21.1677 0.6211,9.75445 -4.0682,16.25945 -14.157,19.63895 -6.1068,2.0455 -18.4778,1.9291 -24.7337,-0.2328 z m 59.0361,-0.046 c -5.9769,-3.7487 -6.347,-5.1398 -6.6852,-25.12715 l -0.306,-18.0914 -3.5839,0 c -3.5708,0 -3.5851,-0.015 -3.9181,-4.2024 -0.1839,-2.3113 -0.2227,-4.5369 -0.086,-4.9459 0.1363,-0.4089 1.9317,-0.5829 3.9898,-0.3866 l 3.7419,0.3569 0,-7.1298 0,-7.1297 6.9902,0 6.9902,0 0.2754,6.7969 0.2755,6.7969 4.4531,0.2857 4.4531,0.2858 0,4.6361 0,4.6361 -4.6875,0 -4.6875,0 0.014,14.2969 c 0.016,16.7277 0.6454,18.83895 5.7424,19.26785 3.3077,0.2783 3.3797,0.3716 3.9399,5.1011 0.3138,2.6496 0.3415,5.0465 0.062,5.3264 -0.2799,0.2799 -3.5391,0.6431 -7.2427,0.8071 -5.4645,0.242 -7.2985,-0.056 -9.7297,-1.5808 z m 67.504,-0.044 c -9.313,-4.2281 -10.6328,-20.26975 -2.1638,-26.30025 3.6746,-2.6165 12.4585,-4.6871 19.8839,-4.6871 l 6.3655,0 -0.03,-3.9844 c -0.034,-4.5789 -1.3929,-6.7836 -5.0335,-8.1678 -3.5116,-1.3351 -6.7515,-0.3372 -9.2479,2.8485 -2.1423,2.7336 -4.1634,3.2576 -11.2356,2.9127 -3.2336,-0.1577 -3.5156,-0.3945 -3.5156,-2.9514 0,-3.6932 4.8767,-9.182 10.2829,-11.5734 3.0845,-1.3645 6.198,-1.8439 11.8074,-1.8181 7.9706,0.037 11.8337,1.2922 16.2019,5.2655 4.7213,4.2945 5.179,6.413 5.8004,26.8434 0.3215,10.5703 0.9132,19.95705 1.315,20.85935 0.66,1.4824 0.046,1.6406 -6.3681,1.6406 -7.6431,0 -8.9967,-0.8649 -9.0733,-5.7977 l -0.034,-2.171 -2.0756,2.4787 c -5.3784,6.4229 -14.7278,8.3036 -22.88,4.6024 z m 17.8934,-9.3874 c 4.303,-1.63595 6.1922,-4.36465 6.1922,-8.94365 l 0,-4.2188 -5.5808,0 c -6.5927,0 -9.7654,1.2379 -11.1908,4.3663 -1.5216,3.3395 -1.2893,5.0922 0.9976,7.52635 2.1735,2.3137 5.6311,2.7718 9.5818,1.2698 z m 42.1026,9.4311 c -5.9769,-3.7487 -6.347,-5.1397 -6.6852,-25.12715 l -0.306,-18.0914 -4.1961,0 -4.196,0 0.2833,-4.9219 0.2834,-4.9218 3.75,0 3.75,0 0.2754,-6.7969 0.2755,-6.7969 6.9491,0 6.9491,0 0.2754,6.7969 0.2755,6.7969 4.4546,0 4.4547,0 0,4.9218 0,4.9219 -4.6875,0 -4.6875,0 0,14.7914 c 7e-4,16.9281 0.6463,18.95855 6.0283,18.95855 3.0637,0 3.1159,0.072 3.5942,4.9219 0.2669,2.707 0.2922,5.126 0.056,5.3756 -0.2361,0.2495 -3.4594,0.5879 -7.163,0.7519 -5.4644,0.242 -7.2985,-0.056 -9.7297,-1.5808 z m -101.5354,-25.87475 0,-26.7188 7.0313,0 c 3.8672,0 6.9813,0.3164 6.9202,0.7031 -0.061,0.3868 -0.061,1.847 0,3.245 l 0.111,2.5418 3.5157,-3.7587 c 2.9386,-3.1419 4.1628,-3.7838 7.4587,-3.9113 2.1686,-0.084 4.1311,0.042 4.361,0.2794 0.2298,0.2376 0.1429,2.9309 -0.1931,5.9851 l -0.611,5.5531 -5.4298,1.082 c -5.9066,1.177 -8.3391,2.9312 -8.7077,6.2797 -0.1306,1.1864 -0.2727,9.6454 -0.3156,18.7977 l -0.078,16.64055 -7.0313,0 -7.0312,0 0,-26.71865 z m 128.4375,-9.8043 0,-36.602 9.6094,0.01 9.6094,0.01 9.311,27.3707 c 5.121,15.0539 9.4653,26.9679 9.654,26.4756 0.1886,-0.4923 4.478,-12.7076 9.5318,-27.1451 l 9.1888,-26.25 9.5166,-0.2672 9.5165,-0.2671 0,36.5953 0,36.59525 -7.0312,0 -7.0313,0 0,-24.56245 c 0,-15.2304 -0.3327,-24.2242 -0.8757,-23.6719 -0.4816,0.4898 -4.2909,10.3828 -8.465,21.9844 -4.1741,11.6015 -8.05,22.25385 -8.613,23.67175 -0.9357,2.3564 -1.4483,2.5782 -5.9588,2.5782 l -4.9351,0 -8.7793,-24.37015 c -4.8286,-13.4036 -9.0823,-24.3724 -9.4526,-24.375 -0.3704,0 -0.6614,10.8584 -0.6468,24.1358 l 0.026,24.14055 -7.0876,0.2738 -7.0876,0.2738 0,-36.60185 z m 90,-0.039 0,-36.5625 7.0187,0 7.0186,0 0.247,31.1719 0.247,31.17185 2.3437,0.1159 c 1.2891,0.064 8.5665,0.1692 16.1719,0.2344 l 13.8281,0.1184 0,5.1563 0,5.1562 -23.4375,0 -23.4375,0 z m -248.4375,-74.4926 c 0,-0.1673 3.4805,0.4898 7.7344,1.4602 44.34305,8.84823 85.96512,10.18919 125.1913,0.752 58.6943,-17.56069 110.354,-49.21583 134.3038,-103.01392 2.0394,-4.70219 3.708,-8.99308 3.708,-9.53531 -50.06537,43.54179 -112.96401,75.05352 -167.8325,81.22443 -63.88363,1.12536 -119.33275,-11.00448 -165.2102,-40.52304 -8.39853,7.77995 -31.78828,35.35375 -39.7514,32.51334 -1.1592,-0.4408 -2.8226,-1.8924 -3.69635,-3.22591 -1.73013,-2.64052 -40.69066,-178.82853 -40.69461,-184.0299 -0.003,-3.84492 3.55757,-7.69177 7.11917,-7.69177 57.5923,13.47206 119.81188,23.27079 180.66649,39.41002 5.1474,1.45643 7.2119,3.89834 7.2119,8.53005 0.64625,8.66988 -37.27748,34.26185 -30.4687,39.81547 40.75429,29.05499 83.93254,39.9115 127.0312,40.08277 69.05725,-4.48778 132.69616,-26.42384 165.00002,-86.12712 l 4.2188,-8.00102 0.6978,3.53553 c 0.3839,1.94456 0.9652,10.07461 1.2919,18.0668 -6.16305,189.17914 -205.86602,265.31198 -316.52102,176.75738 z m 111.3282,-126.02575 -9.1407,-1.3261 0,-18.10867 0,-18.10866 -18.7497,0.055 c -10.3124,0.0303 -18.7477,-0.30037 -18.7452,-0.73473 0,-0.43435 1.5634,-4.4711 3.4686,-8.97054 l 3.4641,-8.18081 15.0468,-0.25669 15.0467,-0.25671 0,-37.5 0,-37.5 -34.9105,-0.24577 c -32.4375,-0.22837 -35.0289,-0.12735 -36.5823,1.42605 -1.0409,1.04088 -3.2128,8.03302 -5.7549,18.52703 -2.2457,9.27036 -4.1841,16.97436 -4.3075,17.12001 -0.3299,0.38923 -16.4641,-3.28415 -17.0653,-3.88536 -0.2815,-0.28142 1.0157,-7.47992 2.8825,-15.99665 1.8668,-8.51674 3.3942,-15.91902 3.3942,-16.44951 0,-0.63403 -7.6388,-0.96455 -22.2913,-0.96455 -18.4159,0 -22.6447,0.24745 -24.3234,1.42328 -1.1177,0.78282 -3.9287,5.42708 -6.2468,10.32059 -2.318,4.8935 -4.9087,9.16361 -5.757,9.48913 -0.8483,0.32553 -3.721,0.13363 -6.3837,-0.42643 -2.6628,-0.56006 -9.2711,-1.95314 -14.6852,-3.09575 -5.4141,-1.14261 -10.1919,-2.37823 -10.6173,-2.74583 22.89337,-100.80301 155.2765,-146.12811 233.3887,-131.1975 78.1122,14.93061 122.47722,59.35211 150.43292,126.54501 4.6132,11.32252 1.9527,28.64436 -6.63252,43.18198 -4.0296,6.82347 -12.2238,18.04111 -12.7755,17.48939 -0.1946,-0.19459 -1.6169,-6.59002 -3.1606,-14.21208 -1.5438,-7.62204 -3.6919,-16.86928 -4.7736,-20.54941 -2.8765,-9.78559 -12.8657,-32.67562 -15.0915,-34.58175 -1.7063,-1.46114 -4.3149,-1.64063 -23.8433,-1.64063 -20.268,0 -21.9254,0.12415 -21.9017,1.64063 0.053,3.35779 10.9867,72.21634 11.6335,73.263 0.486,0.78638 7.7059,1.06486 26.0115,1.00334 13.9362,-0.0469 25.5259,0.10212 25.7548,0.33104 0.784,0.78396 -15.858,14.89755 -19.2531,16.32799 -2.5309,1.06632 -7.3151,1.45716 -18.8599,1.54075 l -15.4687,0.112 -0.6598,7.9668 c -1.0045,12.12798 -0.6506,11.56935 -9.7401,15.37428 -4.4378,1.85772 -8.4921,3.37767 -9.0095,3.37767 -0.9209,0 -0.3308,-17.91431 0.7798,-23.67187 l 0.4973,-2.57813 -42.7117,0 -42.7117,0 -0.2534,18.99762 -0.2534,18.99762 -9.1406,-1.32611 z m 93.7096,-67.37245 c -0.3086,-6.0586 -1.2628,-15.86719 -2.1206,-21.79688 -1.7825,-12.32242 -8.1778,-38.83611 -9.855,-40.857 -0.9487,-1.14304 -6.5913,-1.31473 -36.3893,-1.10728 l -35.2666,0.24553 -0.2451,37.26563 -0.2452,37.26562 42.3414,0 42.3414,0 z m -191.1566,-82.81164 c 2.224,-0.77528 3.4108,-2.15807 5.029,-5.85937 6.9844,-15.97524 15.4299,-30.15589 25.106,-42.15466 3.2423,-4.02053 5.7253,-7.47978 5.5178,-7.68721 -0.6818,-0.68183 -17.9727,7.54448 -25.6277,12.19261 -10.9966,6.67715 -17.7228,11.71761 -27.2053,20.38692 -7.8494,7.17626 -20.21,20.36302 -20.9127,22.31037 -0.1727,0.47864 7.3666,0.96725 17.3438,1.12401 9.707,0.15251 17.6917,0.37288 17.7437,0.48969 0.052,0.11682 1.4044,-0.24425 3.0054,-0.80236 z m 88.0843,-32.03211 -0.2467,-32.10938 -3.2638,0.3234 c -4.5926,0.45506 -14.1204,4.96566 -21.2784,10.07351 -17.3308,12.36698 -36.2964,37.25772 -38.4363,50.44433 l -0.5481,3.37751 32.01,0 32.01,0 z m 82.722,30.73937 c 0,-2.69336 -10.4024,-21.73247 -15.8197,-28.95416 -14.6231,-19.49374 -28.9815,-30.20372 -45.3521,-33.82825 l -2.5782,-0.57081 0,32.36161 0,32.36161 31.875,0 c 27.3335,0 31.875,-0.1952 31.875,-1.37 z m 60.9228,-1.46327 c -3.5839,-5.03308 -16.9063,-18.60652 -24.2469,-24.70381 -12.982,-10.78314 -28.2239,-19.9822 -43.4727,-26.23757 -3.9171,-1.60686 -4.5334,-0.87165 -1.5361,1.83247 4.1253,3.72177 17.3277,24.80247 23.4658,37.46845 3.5136,7.25039 6.679,13.47304 7.034,13.82812 0.3551,0.35509 9.6744,0.64561 20.7095,0.64561 l 20.0638,0 z m -355.2977,37.2351 c -6.44531,-2.05514 -11.84475,-3.8365 -11.99875,-3.95859 -0.154,-0.1221 -0.0164,-1.27234 0.30582,-2.55609 l 0.58582,-2.33411 12.35043,3.92448 c 10.66238,3.38808 12.30768,4.1725 12.03768,5.73911 -0.172,0.99804 -0.5939,2.06373 -0.9375,2.3682 -0.3436,0.30448 -5.8982,-1.12788 -12.3435,-3.183 z m 429.17202,-1.35495 c -3.931,-4.50651 -4.5662,-9.09139 -1.7393,-12.5524 l 1.8078,-2.21323 0.8968,2.34375 c 0.5811,1.51892 0.5679,2.75188 -0.037,3.50345 -1.4413,1.78917 -0.027,6.05448 1.8867,5.69036 1.2546,-0.23871 1.6689,-1.48824 1.8886,-5.69652 0.234,-4.48271 0.6599,-5.6387 2.5282,-6.86286 1.9275,-1.26297 2.6201,-1.29359 4.8748,-0.21552 3.5064,1.67658 5.8319,7.97905 4.2362,11.48112 -1.3162,2.88875 -2.5963,3.07038 -3.9403,0.55906 -0.722,-1.34893 -0.6721,-2.36551 0.183,-3.73484 0.9754,-1.56174 0.9146,-2.14181 -0.3573,-3.41377 -2.3672,-2.36726 -3.5873,-0.74445 -3.5873,4.77164 0,5.56096 -1.5394,7.98038 -5.0779,7.98038 -1.1723,0 -2.7754,-0.73828 -3.5625,-1.64062 z m -422.60952,-7.47934 c -4.38281,-1.84938 -8.11274,-3.4753 -8.28873,-3.61313 -0.75501,-0.59134 1.01936,-4.14191 2.06991,-4.14191 0.75823,0 1.02873,-1.08007 0.78766,-3.14503 -0.29815,-2.5538 0.11742,-3.52622 2.21055,-5.17268 2.86041,-2.24997 3.45121,-2.17849 12.36121,1.49546 5.844,2.4097 6.5889,3.28038 4.9805,5.82202 -0.7139,1.12817 -1.8575,0.91541 -7.1344,-1.32731 -6.8864,-2.92673 -9.33045,-2.55214 -9.33045,1.43002 0,1.82583 1.09295,2.62152 6.73785,4.90506 6.4852,2.62345 6.6993,2.8104 5.7089,4.98408 -0.5659,1.2421 -1.2777,2.22858 -1.5816,2.19216 -0.304,-0.0365 -4.1386,-1.57936 -8.5214,-3.42874 z m 415.29622,-8.7229 c -2.0533,-3.83657 -0.4175,-6.31681 6.1217,-9.2818 4.278,-1.93975 5.9178,-3.15008 5.5536,-4.09917 -0.5991,-1.56115 2.0541,-2.91232 2.9314,-1.49284 0.3264,0.52807 1.7998,0.68529 3.3113,0.35332 1.5859,-0.34833 2.7232,-0.20751 2.7232,0.33719 0,0.51441 0.2415,1.56452 0.5366,2.33354 0.3408,0.88811 -0.1865,1.62773 -1.4454,2.02729 -1.377,0.43702 -1.8184,1.14445 -1.4461,2.31742 0.6885,2.16955 -2.35,3.52112 -3.4594,1.53874 -1.1781,-2.10508 -10.3686,2.12756 -11.0699,5.09816 -0.6906,2.92582 -2.4395,3.32993 -3.757,0.86815 z M 180.15411,241.37635 c -4.4166,-2.27953 -5.5071,-2.54042 -5.937,-1.42035 -0.7569,1.97259 -3.4302,0.65891 -2.8869,-1.41868 0.2912,-1.11341 -0.1747,-1.91073 -1.3307,-2.27764 -1.90957,-0.60608 -2.23715,-2.0131 -0.94388,-4.05414 0.52483,-0.82831 1.54198,-1.03863 2.91518,-0.6028 1.3262,0.42091 2.3785,0.23343 2.8349,-0.50504 1.0739,-1.73753 3.6631,-0.3883 3.1344,1.63331 -0.641,2.45124 9.8346,7.69304 11.3273,5.66797 1.2665,-1.71821 3.3284,-1.03347 3.3284,1.10534 0,2.13561 -2.9226,4.76735 -5.2301,4.70958 -0.9906,-0.0248 -4.2359,-1.3017 -7.2116,-2.83755 z m 401.44682,-0.0369 c -1.4087,-2.63217 -1.0572,-2.90253 13.2812,-10.21547 l 10.8802,-5.54916 1.0531,2.31141 c 1.0225,2.24417 0.8015,2.43738 -7.5989,6.64258 -4.7586,2.38215 -10.4173,5.35892 -12.575,6.61504 l -3.923,2.28386 z m -4.5235,-8.13123 c -0.6562,-1.22612 -0.6463,-2.09706 0.032,-2.77496 0.6923,-0.69233 0.3955,-1.17602 -0.9917,-1.61631 -1.0888,-0.34557 -2.57932,-1.78784 -3.31212,-3.20503 -1.9309,-3.73381 -0.2943,-6.34518 6.98672,-11.14828 l 6.0851,-4.01412 1.6671,2.04133 c 1.6537,2.02488 1.6181,2.07069 -4.4163,5.68461 -7.0694,4.23381 -7.5261,4.77548 -6.1675,7.31417 1.4373,2.68559 3.4136,2.37492 9.7425,-1.53148 5.2819,-3.26014 5.6115,-3.34217 6.8154,-1.69581 1.9883,2.71921 2.8068,1.99093 -12.0316,10.70507 -3.3664,1.97699 -3.4769,1.98301 -4.4093,0.24081 z m -391.44962,-2.0239 c -3.0069,-1.98214 -5.1344,-5.19462 -5.1863,-7.83124 -0.057,-2.89118 2.7582,-7.25746 5.303,-8.22498 2.5358,-0.96413 8.162,0.27191 9.2499,2.03215 0.3023,0.48919 -0.7465,2.996 -2.3307,5.57069 -1.5842,2.57468 -2.8804,4.88584 -2.8804,5.1359 0,0.25007 0.9893,0.45467 2.1984,0.45467 2.4373,0 4.7413,-2.17037 5.7226,-5.39062 0.7862,-2.5798 3.329,-2.80544 3.329,-0.29541 0,8.3537 -8.5251,13.08444 -15.4055,8.54884 z m 3.0794,-8.08932 c 1.2056,-2.64587 0.7433,-4.14847 -1.2764,-4.14847 -1.9513,0 -3.2785,2.92458 -2.2225,4.89767 1.2285,2.29555 2.2071,2.08602 3.4989,-0.74918 z m 7.8241,-9.23597 c -3.7651,-2.75562 -7.0688,-5.23334 -7.3416,-5.50607 -1.0063,-1.00632 1.5744,-4.33098 2.9516,-3.80248 1.0116,0.38819 1.392,-0.13373 1.392,-1.9099 0,-2.85274 2.9767,-6.19405 5.5182,-6.19405 1.7552,0 12.1138,6.42956 13.9787,8.67658 0.6856,0.82611 0.5822,1.70707 -0.3501,2.98203 -1.2833,1.75507 -1.4433,1.71882 -5.3131,-1.2039 -5.9058,-4.4604 -8.0676,-5.37758 -9.9221,-4.20976 -3.08,1.93946 -2.1844,3.80947 3.9985,8.34929 5.793,4.2535 6.0456,4.59489 4.5898,6.20349 -0.8473,0.93625 -1.7915,1.68488 -2.0983,1.66364 -0.3068,-0.0213 -3.6384,-2.29324 -7.4036,-5.04885 z m 367.7787,-0.92553 c -2.9158,-2.91579 -3.8127,-6.59636 -2.3758,-9.74988 1.0933,-2.39965 1.191,-2.42832 2.4425,-0.71678 0.717,0.98056 1.0779,2.6823 0.802,3.78165 -0.6586,2.62407 2.8507,6.07687 4.5,4.42756 0.8432,-0.8432 0.7202,-2.16066 -0.5253,-5.6241 -1.8528,-5.15245 -1.3514,-7.43632 1.9041,-8.67408 5.14872,-1.95752 11.71352,5.45728 9.64612,10.89501 -0.9355,2.46058 -1.0297,2.49028 -2.804,0.88453 -1.1965,-1.08276 -1.657,-2.37474 -1.3222,-3.70891 0.6515,-2.59556 -1.944,-5.1021 -3.58452,-3.46165 -0.8228,0.82285 -0.8132,1.83993 0.04,4.19871 1.43542,3.96961 1.43572,7.45089 6e-4,8.88595 -1.8782,1.87824 -6.2814,1.30382 -8.7232,-1.13801 z m -11.1182,-14.10732 c -3.0378,-2.81534 -4.5978,-6.63753 -3.7959,-9.30037 0.9051,-3.00547 5.0206,-6.97848 8.3757,-8.08577 8.3866,-2.76782 14.4644,7.35824 8.0849,13.47012 l -2.6767,2.56444 -3.865,-4.49841 c -3.182,-3.70334 -4.0319,-4.24988 -4.809,-3.09218 -1.5452,2.30212 -1.128,3.79004 1.8399,6.5625 1.5469,1.445 2.8125,3.09083 2.8125,3.65739 0,1.82593 -3.4041,1.09693 -5.9664,-1.27772 z m 11.2722,-11.23449 c -0.7083,-1.84559 -2.9452,-2.7821 -4.8758,-2.04126 -1.2325,0.47297 -1.1361,0.9724 0.6555,3.39569 1.8266,2.47061 2.2763,2.66539 3.4482,1.49347 0.7413,-0.74123 1.0887,-2.02279 0.7721,-2.8479 z m -354.1817,8.45306 c -3.5965,-2.98667 -5.3212,-3.88484 -6.1457,-3.20055 -1.5264,1.2668 -3.2628,0.0978 -2.9138,-1.96172 0.1535,-0.90636 -0.2848,-2.32742 -0.9741,-3.15793 -1.0484,-1.26326 -1.0373,-1.81815 0.068,-3.3959 1.234,-1.7617 1.4622,-1.78702 3.4647,-0.3844 1.68,1.1767 2.3018,1.24576 2.8743,0.31927 1.1044,-1.78689 3.0333,-0.0827 2.4982,2.20714 -0.6126,2.62142 7.3138,9.35442 9.6216,8.17286 1.6838,-0.86216 3.8205,-0.33443 3.8205,0.94361 0,1.52806 -3.698,4.60938 -5.5319,4.60938 -0.9801,0 -4.0318,-1.8683 -6.7815,-4.15176 z m 7.4123,-9.79871 c -5.9232,-5.64831 -6.6077,-6.63927 -5.5043,-7.96875 0.6931,-0.83505 1.5789,-1.51828 1.9687,-1.51828 0.3897,0 3.7088,2.77779 7.3758,6.17287 5.7074,5.28418 6.5289,6.43142 5.7061,7.96875 -0.5286,0.98774 -1.3708,1.79588 -1.8715,1.79588 -0.5007,0 -3.9543,-2.90271 -7.6748,-6.45047 z m 325.2347,1.0214 c -2.0742,-2.29196 -2.0186,-2.72981 0.8188,-6.44988 2.6246,-3.44105 2.4783,-5.55718 -0.5752,-8.32058 -1.8266,-1.65309 -1.966,-1.60794 -5.4062,1.75135 -3.8013,3.71186 -5.006,4.12334 -6.5667,2.24286 -0.7587,-0.91421 1.1569,-3.51806 7.9312,-10.78073 l 8.9315,-9.57541 4.0544,3.3223 c 4.519,3.70292 7.3679,8.73213 6.4333,11.35676 -1.1098,3.11681 -3.3893,5.0074 -6.0372,5.0074 -2.2911,0 -2.5949,0.34108 -2.524,2.83394 0.046,1.62061 -0.7287,3.72788 -1.8096,4.92188 -1.0397,1.14836 -2.29,2.84213 -2.7785,3.76393 -0.8485,1.60102 -0.9591,1.59772 -2.4718,-0.0738 z m 9.4789,-16.32091 c 1.7089,-1.70884 1.3473,-4.94577 -0.7661,-6.85837 -1.8431,-1.66799 -1.9622,-1.64341 -4.6868,0.96691 l -2.7956,2.67839 2.0377,2.16903 c 2.2468,2.39163 4.4867,2.76816 6.2108,1.04404 z m -325.6687,10.60714 c -3.5653,-2.1741 -6.2949,-7.58656 -5.4745,-10.85519 0.8787,-3.5013 5.5693,-7.06449 9.2995,-7.06449 9.0391,0 13.4043,12.26331 6.3424,17.81814 -2.9754,2.34046 -6.4391,2.37505 -10.1674,0.10154 z m 9.0555,-4.41539 c 1.5345,-1.84891 -0.1383,-5.29432 -3.9415,-8.11822 -2.001,-1.48575 -2.8334,-1.62805 -4.4531,-0.76122 -2.6612,1.42421 -2.5123,3.98808 0.435,7.49072 2.6734,3.17721 5.9944,3.75663 7.9596,1.38872 z m -30.0464,-1.75201 c -1.0228,-1.23243 -0.9433,-1.78515 0.4833,-3.36155 1.535,-1.69615 1.8526,-1.74131 3.1465,-0.44744 1.2938,1.29387 1.2451,1.63322 -0.4833,3.36154 -1.7309,1.73099 -2.0443,1.77554 -3.1465,0.44745 z m 35.5029,-9.6429 c -2.7188,-3.48047 -5.3556,-6.87664 -5.8596,-7.54706 -1.4239,-1.89415 1.6521,-4.62487 3.4907,-3.09893 1.1391,0.94534 1.4347,0.7835 1.6877,-0.92398 0.1687,-1.13853 1.4862,-2.94746 2.9278,-4.01985 2.4071,-1.79057 2.8248,-1.83549 5.115,-0.55003 1.3716,0.76988 4.3845,3.8345 6.6952,6.81028 4.1749,5.37638 4.1898,5.42208 2.3612,7.25069 -1.8286,1.82861 -1.8667,1.80489 -6.0351,-3.76285 -4.467,-5.9666 -7.5036,-7.21982 -9.3109,-3.84273 -0.7855,1.46762 -0.3062,2.63591 2.5962,6.32812 1.9577,2.49052 3.8892,5.07403 4.2923,5.74115 0.7274,1.2041 -0.8531,3.94331 -2.2753,3.94331 -0.4081,0 -2.9664,-2.84766 -5.6852,-6.32812 z m 19.4954,-8.77606 c -2.5247,-1.46873 -0.2111,-3.90406 3.0321,-3.19173 3.1442,0.69057 6.2323,-1.44316 5.3639,-3.70614 -0.4598,-1.19834 -1.205,-1.47489 -2.7304,-1.01327 -1.1539,0.3492 -3.8757,0.8721 -6.0486,1.16199 -3.6186,0.48277 -4.0483,0.31282 -5.1121,-2.02208 -1.5308,-3.35972 0.3301,-6.83442 5.0148,-9.36392 2.9166,-1.57474 3.7596,-1.66692 5.9827,-0.65404 2.3704,1.08004 2.4618,1.30475 1.0898,2.67682 -0.8238,0.82379 -2.896,1.53999 -4.6049,1.59155 -2.4509,0.074 -3.1072,0.48976 -3.1072,1.96875 0,2.00204 0.5416,2.06518 7.6402,0.89076 3.5192,-0.58225 4.0459,-0.4059 5.5236,1.84934 2.0809,3.17585 0.8489,6.30423 -3.5353,8.9773 -3.3951,2.07001 -5.9536,2.321 -8.5086,0.83467 z m 238.7752,-3.62714 c -3.8639,-1.56118 -7.3179,-7.75212 -5.3968,-9.6732 1.0137,-1.01371 4.0954,1.1967 4.0954,2.9375 0,2.1301 1.7895,3.90452 3.9375,3.90452 2.5102,0 2.0083,-2.81685 -1.1631,-6.52709 -3.284,-3.84204 -3.4761,-5.89614 -0.8017,-8.57057 2.5202,-2.52017 6.7301,-1.83464 10.4153,1.69597 3.7266,3.57027 3.4329,9.25402 -0.3358,6.49831 -0.8365,-0.61167 -1.6792,-1.94535 -1.8727,-2.96374 -0.2295,-1.20823 -1.2448,-1.95471 -2.9218,-2.14827 -3.3239,-0.38366 -3.3778,1.56228 -0.1269,4.58635 6.9494,6.4647 2.8098,13.75085 -5.8294,10.26022 z m -16.6894,-9.68745 c -1.5848,-1.15885 -1.451,-1.6966 2.2736,-9.14063 2.1766,-4.35014 4.0875,-8.05334 4.2465,-8.22933 0.159,-0.17598 1.1952,-0.0324 2.3026,0.31908 1.3049,0.41414 1.8209,1.14086 1.4663,2.06498 -0.3967,1.03377 -0.1212,1.26246 1.0017,0.83155 0.852,-0.32692 2.3215,-0.34922 3.2656,-0.0496 1.4225,0.45148 1.5284,0.84631 0.618,2.30408 -0.803,1.28582 -1.7931,1.62037 -3.6791,1.24316 -2.4017,-0.48035 -2.7921,-0.0867 -5.6387,5.68593 -1.6821,3.4111 -3.3091,6.20201 -3.6155,6.20201 -0.3064,0 -1.3148,-0.55407 -2.241,-1.23127 z m -12.4288,-4.82288 c -5.39,-2.34461 -6.6832,-8.97697 -2.8573,-14.65421 3.5792,-5.3111 9.6595,-6.019 13.7732,-1.60351 2.1549,2.31304 2.5046,7.0655 0.7013,9.53166 -1.1366,1.55433 -1.4367,1.5391 -5.7028,-0.28956 -5.5264,-2.36892 -6.2226,-2.39136 -6.2226,-0.20053 0,2.4218 2.96,4.8328 5.9332,4.8328 1.8793,0 2.5043,0.46794 2.5043,1.875 0,2.27166 -3.5634,2.49448 -8.1293,0.50835 z m 8.1293,-12.16392 c 0,-2.67732 -3.1185,-4.09808 -5.2012,-2.36959 -1.9799,1.64318 -1.6871,2.4999 1.2169,3.56052 3.7676,1.37606 3.9843,1.31127 3.9843,-1.19093 z m -173.4375,9.12548 c -1.9208,-0.71994 -4.6875,-3.20355 -4.6875,-4.20792 0,-1.56676 4.1643,-2.50267 4.9685,-1.11664 1.643,2.83172 9.094,0.81792 9.094,-2.45785 0,-2.51237 -2.7846,-3.75 -8.4375,-3.75 -5.6806,0 -8.2083,-1.15017 -9.3966,-4.27575 -2.6687,-7.01923 9.0854,-13.93328 15.7505,-9.26484 2.6481,1.85479 2.6404,3.07643 -0.026,4.09196 -1.4943,0.56918 -2.596,0.37384 -3.7783,-0.66995 -2.1144,-1.86658 -6.5862,-0.53858 -7.0957,2.10724 -0.5143,2.67005 2.4283,4.26134 7.8799,4.26134 7.8818,0 11.8676,4.68067 8.8257,10.36443 -1.6792,3.13758 -9.7558,6.17035 -13.0972,4.91798 z m 151.3187,-3.45397 c -0.3933,-1.02487 -1.3274,-1.27981 -3.2675,-0.8918 -5.8325,1.16649 -9.2892,-4.01771 -7.3877,-11.07953 2.0023,-7.43598 8.2189,-10.55219 12.6834,-6.35793 l 2.0615,1.93667 1.1394,-4.74917 c 0.9669,-4.0305 1.4714,-4.74918 3.3342,-4.74918 1.2072,0 2.3745,0.31641 2.594,0.70313 0.2195,0.38671 -1.374,6.39843 -3.541,13.35937 -2.8067,9.01546 -4.3897,12.74361 -5.5029,12.95992 -0.8595,0.16701 -1.8105,-0.34215 -2.1134,-1.13148 z m 1.3289,-8.83503 c 1.4967,-4.9957 1.417,-5.57161 -0.9468,-6.83664 -1.7745,-0.9497 -2.34,-0.75863 -4.2187,1.42554 -2.6436,3.07334 -2.9474,8.45171 -0.5531,9.79161 2.4128,1.35031 4.4748,-0.22919 5.7186,-4.38051 z m -131.3849,5.20972 c -0.8776,-0.64454 -2.3759,-3.91407 -3.3296,-7.26563 -1.3113,-4.60834 -2.1087,-6.0266 -3.271,-5.81827 -1.0129,0.18152 -1.5371,-0.37797 -1.5371,-1.64063 0,-1.05385 0.4379,-1.9161 0.973,-1.9161 0.5352,0 0.8516,-1.10288 0.7032,-2.45084 -0.2001,-1.81716 0.2731,-2.65684 1.8301,-3.24757 1.7746,-0.67327 2.1928,-0.42676 2.6992,1.59102 0.4307,1.71591 1.0757,2.26313 2.2926,1.94491 0.9569,-0.25022 1.9236,0.15709 2.2227,0.93651 0.7606,1.98216 0.6871,2.16347 -0.877,2.16347 -1.7269,0 -1.7594,1.99962 -0.1217,7.5 0.9209,3.09302 1.7926,4.29869 3.267,4.51833 2.3669,0.35261 2.7466,3.43624 0.528,4.28762 -2.2203,0.852 -3.6106,0.69619 -5.3794,-0.60282 z m 109.9479,-1.47215 c -1.2616,-0.55613 -1.042,-2.33746 1.7259,-13.9966 3.0881,-13.0077 3.7838,-14.319392 6.6364,-12.51259 1.0699,0.67767 0.7606,3.0886 -1.8019,14.04814 -1.7014,7.27654 -3.5482,13.20042 -4.1041,13.16417 -0.5558,-0.0362 -1.6612,-0.35264 -2.4563,-0.70312 z m -99.1618,-0.80956 c -1.6832,-0.67341 -3.1581,-4.84063 -2.4749,-6.99303 0.6453,-2.03339 5.0423,-4.55339 7.9448,-4.55339 1.5218,0 1.9166,-0.49138 1.6872,-2.09979 -0.361,-2.52999 -3.4976,-3.37697 -4.983,-1.34556 -1.3769,1.88291 -6.0979,3.12155 -6.0979,1.59986 0,-0.61118 1.2332,-2.34441 2.7404,-3.85162 1.9396,-1.93959 3.6594,-2.74039 5.8852,-2.74039 5.016,0 6.9055,1.98648 8.213,8.63444 0.6379,3.24324 1.5313,6.59149 1.9855,7.44054 0.6466,1.20882 0.2898,1.67824 -1.6446,2.16374 -1.5103,0.37905 -2.7352,0.19152 -3.1517,-0.48251 -0.4817,-0.77941 -1.2634,-0.52059 -2.6671,0.88314 -1.8934,1.89341 -4.7665,2.41286 -7.4369,1.34457 z m 6.4504,-4.0794 c 1.5251,-0.81625 2.7256,-5.59202 1.4056,-5.59202 -2.0645,0 -5.2173,2.15765 -5.2173,3.57054 0,2.9541 1.0392,3.50524 3.8117,2.02148 z m 76.1649,1.89898 c -5.5904,-2.25183 -6.6418,-11.87693 -1.8236,-16.69509 4.2768,-4.27678 12.5508,-2.43617 14.7222,3.27505 2.2178,5.83327 -2.7056,14.43017 -8.1937,14.30711 -1.4576,-0.0327 -3.5748,-0.43186 -4.7049,-0.88707 z m 6.7814,-5.07559 c 0.8933,-1.36334 1.3707,-3.70684 1.1935,-5.85937 -0.2525,-3.06792 -0.6461,-3.62808 -2.7192,-3.86907 -2.9318,-0.3408 -4.5241,1.38641 -5.2176,5.65997 -0.9031,5.56566 3.8739,8.44782 6.7433,4.06847 z m -70.8205,4.44534 c 0,-0.20858 -0.6547,-6.3156 -1.455,-13.57115 -0.8003,-7.25556 -1.3277,-13.302112 -1.1719,-13.436792 0.1558,-0.13469 1.1952,-0.52486 2.31,-0.86705 2.255,-0.69225 2.5041,-0.002 3.6072,9.998622 0.3271,2.96484 0.9221,5.39062 1.3223,5.39062 0.4002,0 1.472,-1.65071 2.3818,-3.66825 1.4981,-3.32218 3.4795,-4.71802 6.7519,-4.75645 0.623,-0.007 -0.048,2.06859 -1.567,4.84577 l -2.6569,4.85858 4.2589,4.98517 4.259,4.98518 -3.0334,0 c -2.3782,0 -3.8118,-0.8605 -6.6379,-3.98437 l -3.6046,-3.98438 -0.038,4.34383 c -0.034,3.87546 -0.2911,4.39215 -2.3822,4.79187 -1.289,0.24642 -2.3437,0.27738 -2.3437,0.0688 z m 22.7837,-2.35798 c -2.2847,-1.10385 -4.9712,-6.0365 -4.9712,-9.12769 0,-3.85555 2.5127,-8.14839 5.4915,-9.38228 5.5813,-2.31183 11.3835,1.18213 11.3835,6.85485 l 0,3.16017 -5.625,0.63639 c -5.8813,0.66539 -6.5966,1.31277 -4.1517,3.75757 1.6976,1.6976 3.098,1.82745 6.3547,0.58925 1.7954,-0.68262 2.45,-0.55838 2.8735,0.54543 0.7747,2.01879 0.8478,1.9258 -2.4038,3.05932 -3.5913,1.25191 -6.2245,1.22455 -8.9515,-0.093 z m 7.2163,-12.35673 c 0,-0.7103 -0.6681,-1.846 -1.4848,-2.52376 -1.7409,-1.44484 -4.4245,-0.20188 -4.912,2.27508 -0.2358,1.19773 0.4416,1.54014 3.0469,1.54014 2.2204,0 3.3499,-0.43546 3.3499,-1.29146 z m 9.8438,12.84889 c -1.8236,-0.36444 -1.8493,-0.74453 -0.9375,-13.86445 0.5156,-7.41935 1.2221,-13.770852 1.57,-14.114452 0.3478,-0.3436 1.5338,-0.33866 2.6354,0.011 1.8293,0.58061 1.9484,1.07192 1.3742,5.66793 l -0.6287,5.032212 2.9511,-1.11391 c 2.4131,-0.91086 3.4145,-0.8543 5.4933,0.3103 2.4416,1.36783 2.5529,1.76618 2.8118,10.06283 l 0.2695,8.63863 -2.8205,0 -2.8205,0 0.2072,-7.73437 0.2072,-7.73438 -2.7966,0 c -2.5269,0 -2.8607,0.36169 -3.4616,3.75 -0.3657,2.0625 -0.6893,5.54297 -0.719,7.73438 -0.03,2.1914 -0.3705,3.92692 -0.7572,3.8567 -0.3867,-0.0702 -1.5469,-0.29629 -2.5781,-0.50239 z"
       id="path4149"
       inkscape:connector-curvature="0"
       sodipodi:nodetypes="sccccscscsssscssssscscscsccscccccccccccccccccscccssccccssccsscsccsccsscsscscsccccccccccccccccccccscssccccsccccccccssscccccccccscscccccccscscscscccccccccccccccccccccccccccccscccccccccccccccscscccccsssccsssccsssczcsccccsccscsscsssscccccccsscscccccsssscsscscsccsssccccssscccsscsssscsccscccsscscccccsssscccsssccscsssscsssccssscccssccccssccscsccssssssccsscsccscscsscscsccscccssscsscscccccsssccscsscccccscscsscccccccsssscccsssccscccscccscscssccscsscsscssscscscsccccccsscscscssssssssssccssccssscsscccsssscsscccccssssssssssssscscscscccccssssccssscssssssssscsssscscccsscccsssccsscscccccccscsscscscssscccsssccccsccsssscscsccsscssscsccscccscccsscccccsscccccsscscscscsssccsscsccscsssccaccsccccc" />
  </g>
</svg>
