<?xml version="1.0" encoding="UTF-8" standalone="no"?>
<!-- Created with Inkscape (http://www.inkscape.org/) -->

<svg
   xmlns:dc="http://purl.org/dc/elements/1.1/"
   xmlns:cc="http://creativecommons.org/ns#"
   xmlns:rdf="http://www.w3.org/1999/02/22-rdf-syntax-ns#"
   xmlns:svg="http://www.w3.org/2000/svg"
   xmlns="http://www.w3.org/2000/svg"
   xmlns:sodipodi="http://sodipodi.sourceforge.net/DTD/sodipodi-0.dtd"
   xmlns:inkscape="http://www.inkscape.org/namespaces/inkscape"
   width="31mm"
   height="31mm"
   viewBox="0 0 31 31"
   version="1.1"
   id="svg8"
   inkscape:version="0.91 r13725"
   sodipodi:docname="target_blue_icon.svg">
  <defs
     id="defs2" />
  <sodipodi:namedview
     id="base"
     pagecolor="#ffffff"
     bordercolor="#666666"
     borderopacity="1.0"
     inkscape:pageopacity="0.0"
     inkscape:pageshadow="2"
     inkscape:zoom="1.979899"
     inkscape:cx="81.937638"
     inkscape:cy="-7.8587838"
     inkscape:document-units="mm"
     inkscape:current-layer="layer1"
     showgrid="false"
     inkscape:window-width="978"
     inkscape:window-height="799"
     inkscape:window-x="940"
     inkscape:window-y="219"
     inkscape:window-maximized="0"
     showguides="true"
     inkscape:guide-bbox="true"
     fit-margin-top="0"
     fit-margin-left="0"
     fit-margin-right="0"
     fit-margin-bottom="0">
    <sodipodi:guide
       position="-474.68702,74.915988"
       orientation="1,0"
       id="guide860"
       inkscape:locked="false" />
    <sodipodi:guide
       position="-757.96126,20.98555"
       orientation="0,1"
       id="guide862"
       inkscape:locked="false" />
  </sodipodi:namedview>
  <metadata
     id="metadata5">
    <rdf:RDF>
      <cc:Work
         rdf:about="">
        <dc:format>image/svg+xml</dc:format>
        <dc:type
           rdf:resource="http://purl.org/dc/dcmitype/StillImage" />
        <dc:title></dc:title>
      </cc:Work>
    </rdf:RDF>
  </metadata>
  <g
     inkscape:label="Layer 1"
     inkscape:groupmode="layer"
     id="layer1"
     transform="translate(-499.2877,-92.434401)">
    <g
       id="g8594"
       transform="matrix(0.88571433,0,0,0.88571433,57.061429,14.106783)">
      <g
         transform="matrix(0.08536585,0,0,0.08536585,456.66558,112.89732)"
         id="g4571">
        <path
           style="fill:none;fill-rule:evenodd;stroke:#172e49;stroke-width:26.12831538;stroke-linecap:butt;stroke-linejoin:miter;stroke-miterlimit:4;stroke-dasharray:none;stroke-opacity:1"
           d="m 499.28767,-81.56561 140.44956,0 z m 269.55048,0 140.44952,0 z"
           id="path6692"
           inkscape:connector-curvature="0"
           sodipodi:nodetypes="cccccc" />
        <path
           sodipodi:nodetypes="cccccc"
           inkscape:connector-curvature="0"
           id="path4567"
           d="m 704.28767,-286.56561 0,137.85164 z m 0,272.148348 0,137.851652 z"
           style="fill:none;fill-rule:evenodd;stroke:#172e49;stroke-width:26.12831538;stroke-linecap:butt;stroke-linejoin:miter;stroke-miterlimit:4;stroke-dasharray:none;stroke-opacity:1" />
      </g>
      <path
         sodipodi:nodetypes="sssss"
         id="path3339"
         d="m 520.41927,105.93441 c 0,2.00716 -1.62708,3.63458 -3.63459,3.63458 -2.0075,0 -3.63425,-1.62742 -3.63425,-3.63458 0,-2.00716 1.62709,-3.63459 3.63459,-3.63459 2.0075,0 3.63425,1.62743 3.63425,3.63459 z"
         inkscape:connector-curvature="0"
         style="fill:#172e49;fill-opacity:1;stroke:none;stroke-width:5.8859973px" />
      <path
         sodipodi:nodetypes="ssssssssss"
         style="fill:#172e49;fill-opacity:1;stroke:none;stroke-width:5.8859973px"
         inkscape:connector-curvature="0"
         d="m 502.63877,105.93528 c 0,-7.8161 6.3337,-14.149809 14.14805,-14.149809 7.81436,0 14.14982,6.333709 14.14982,14.149809 0,7.81129 -6.33546,14.14806 -14.14982,14.14806 -7.81435,0 -14.14805,-6.33677 -14.14805,-14.14806 z m 14.14586,10.06728 c 5.20855,0 10.06815,-4.86049 10.06815,-10.06772 0,-5.20942 -4.8596,-10.069894 -10.06815,-10.069894 -5.2081,0 -10.06771,4.860044 -10.06771,10.069894 0,5.20723 4.86004,10.06772 10.06771,10.06772 z"
         id="path29" />
    </g>
  </g>
</svg>
